PathFileType	4	(X/Y/Z)	Patient5_TMGait_0pt45_1_right_05.trc.trc
DataRate	CameraRate	NumFrames	NumMarkers	Units	OrigDataRate	OrigDataStartFrame	OrigNumFrames
59.829059829060	59.829059829060	4	32	mm	59.829059829060	71	       141
Frame#	Time	R.ASIS			L.ASIS			Chest			R.Shoulder			Neck			L.Shoulder			L.Elbow			L.Wrist			R.Elbow			R.Wrist			L.Thigh.Superior			L.Thigh.Lateral			L.Thigh.Inferior			L.Patella			L.Shank.Superior			L.Shank.Lateral			L.Shank.Inferior			L.Heel			L.Midfoot.Lateral			L.Midfoot.Superior			L.Toe			R.Thigh.Superior			R.Thigh.Lateral			R.Thigh.Inferior			R.Patella			R.Shank.Superior			R.Shank.Lateral			R.Shank.Inferior			R.Heel			R.Midfoot.Lateral			R.Midfoot.Superior			R.Toe			
		X1	Y1	Z1	X2	Y2	Z2	X3	Y3	Z3	X4	Y4	Z4	X5	Y5	Z5	X6	Y6	Z6	X7	Y7	Z7	X8	Y8	Z8	X9	Y9	Z9	X10	Y10	Z10	X11	Y11	Z11	X12	Y12	Z12	X13	Y13	Z13	X14	Y14	Z14	X15	Y15	Z15	X16	Y16	Z16	X17	Y17	Z17	X18	Y18	Z18	X19	Y19	Z19	X20	Y20	Z20	X21	Y21	Z21	X22	Y22	Z22	X23	Y23	Z23	X24	Y24	Z24	X25	Y25	Z25	X26	Y26	Z26	X27	Y27	Z27	X28	Y28	Z28	X29	Y29	Z29	X30	Y30	Z30	X31	Y31	Z31	X32	Y32	Z32	

71	9.100000000000	980.570290117018	970.437445913626	575.383135040754	1000.386426363193	959.501875179013	332.992413395644	1063.892630606809	1431.243393832267	461.129871988129	961.297095261095	1493.274376380530	626.534503072415	939.126614572021	1554.628690854923	441.950674238655	1002.220921289536	1500.273285882753	262.690106446970	899.296603825158	1191.914800896358	132.714887250458	995.420023777486	921.040255772670	110.367932180664	873.274327684660	1173.071646247523	762.051554055380	1085.511865924079	980.790078456600	713.258723770147	1056.381553676483	756.743543396938	329.639695778905	1005.055278604225	672.191022457742	286.432970044860	1082.938514618860	634.675443450852	361.367833166012	1108.983649273133	519.234339219451	374.631453164874	1072.285522216129	409.393763143613	389.874896282293	1024.640392128506	333.700682377289	304.638568081309	1052.327461440018	283.383715395748	394.791366053227	943.050673082794	49.297515173542	391.239159985390	1030.455734600076	28.026807213716	327.747102502408	1127.793851227782	89.818185666155	371.991952901708	1235.794429755151	46.537514610701	371.689074498584	961.857286614448	732.833502969487	587.711962027939	857.724051217867	668.545894413095	633.216543257298	933.991335414327	602.491017079970	567.651044315544	912.455191459887	501.776304461432	594.157949617922	839.291620331651	413.099219835295	548.582721855081	744.078690951877	370.871296956291	622.100186272446	778.425008233468	287.645821650168	541.813466652933	590.079268394846	99.355605559022	496.893828514483	660.455955424468	48.261032116449	566.185135362804	776.159051456597	92.048680618473	550.034097557484	866.582158162529	41.516277789864	542.488821617348	
72	9.116714285714	980.515506027201	972.704294938892	571.907713917883	1003.889816669982	960.553052897858	330.211292639265	1065.637795878765	1432.635322544067	459.410534864962	960.723319709942	1495.093997691784	623.128524697844	941.351183810606	1556.191785695465	438.161448105312	1007.404841306702	1501.721755045733	260.063145261852	907.129900410578	1193.248828796713	128.437829721272	1005.835106639838	923.187686246250	107.616919781689	869.661866292379	1175.832966643997	758.530047269069	1080.794167819698	981.896387460389	711.595580324848	1056.996926310140	756.144585930363	327.888153042914	1004.668424383200	672.012415912615	284.662978975435	1081.304454229681	633.822976365686	360.345809178246	1105.728697538564	518.288497452119	374.346956759255	1068.050188275112	408.831297928360	389.503386427845	1020.667091495494	333.212826509705	304.168805119966	1046.821079894286	283.037142915568	394.629213328013	935.796217801037	49.242266828475	391.131138558318	1023.223411132153	28.063830188399	327.656069076432	1120.486755078907	89.787558148364	372.116051392552	1228.654762658813	46.390745079136	371.575760467239	965.630301830578	735.370068347934	587.638001032542	862.580585670609	670.006781252885	633.371768640463	941.152054882765	604.345548553142	569.922325189624	920.393424014310	502.585049305733	597.288762690752	844.654237324581	413.739961071268	551.000442780782	748.077453557886	373.971954744585	624.343479188110	780.216259704957	289.985435040312	544.080606609667	586.537876233652	108.852447661138	498.775296865706	654.951027865856	53.911012206536	567.129519758424	772.299687212804	93.461038977847	551.796181284275	859.985367275495	41.512259881638	542.846985912934	
73	9.133428571429	979.967210807491	974.917163510138	568.185281954177	1006.774143399961	961.381006053136	327.564963753118	1067.090791727184	1433.760522537212	457.759931723988	959.852149724201	1496.614170394605	619.723944476827	943.386343102614	1557.553425559227	434.451073017465	1012.527469355349	1503.043976690922	257.591519181841	915.029043484978	1194.567586629350	124.039748618124	1016.301326625688	925.332972931691	104.979287741713	866.346242383665	1178.246357861629	755.149209295747	1076.407468824290	982.821127113292	709.873795920435	1057.188838358324	755.600814983538	326.472560793346	1004.143998770127	671.912108529243	282.862122083728	1079.333970191549	632.959621439017	359.394281601105	1102.106410040445	517.323632985033	373.859350932491	1063.524066992745	408.252019440432	388.931316619216	1016.374532792985	332.668780050129	303.520562831464	1041.115268633700	282.668822550693	394.302390601436	928.459356424386	49.239750088993	391.006235042255	1015.907412985193	28.072652601155	327.584202078857	1113.120091804962	89.684758723020	372.261407706895	1221.423133836244	46.186461940907	371.561806234889	969.679116311153	737.975895672077	587.936695037539	868.144220429870	671.352172196413	634.005634365494	949.118072169439	606.327178083390	572.659368200650	929.309916125483	503.480192058630	600.860463426677	851.054455646621	414.561128425855	553.962720334439	753.217134083001	377.261154087930	627.249739215180	782.850163398458	292.643661034714	546.792391295797	583.832472355573	119.420561394001	501.238934424522	649.989739980402	60.428659040203	568.462703356164	768.930963529008	95.362948490206	553.858133825749	853.752978322038	41.508902361945	543.402479090537	
74	9.150142857143	979.040105978491	977.040595167109	564.359702108048	1008.930955156575	961.996758323479	325.071752436331	1068.228165265356	1434.637016739065	456.167955574792	958.696683134834	1497.867823746587	616.343206812081	945.201011461698	1558.724918842335	430.838175410863	1017.491816094782	1504.207400518904	255.279914190824	923.018691582928	1195.800144843502	119.558131347949	1026.766749931682	927.392742978757	102.439667221717	863.159081353311	1180.276570060127	751.752617258152	1072.325128951345	983.592410952737	708.186169888174	1057.038311055353	755.141148909455	325.260562097382	1003.487882637999	671.885614356829	281.027161551067	1077.164768048211	632.128924252049	358.417081796066	1098.282351110372	516.369230137668	373.144896687035	1058.847620129094	407.671993745246	388.168887807944	1011.850352161832	332.107103070727	302.707379873725	1035.299339553816	282.297176227683	393.815299255115	921.041264575905	49.275695937695	390.855090579160	1008.505631670762	28.059447736214	327.505134765116	1105.688284683329	89.536271170831	372.379649833531	1214.096442855961	45.950765874553	371.585006039551	973.876225094022	740.702091660730	588.542064527036	874.234151184526	672.696352814975	635.065376913441	957.616547555631	608.525055525820	575.715285979749	938.929150909681	504.605413191337	604.737458261445	858.297703144209	415.687114003636	557.375977377715	759.318882026535	380.835061570748	630.734621944350	786.227686042500	295.709921209566	549.888912618514	582.066483390814	131.052108233141	504.340893415023	645.644005934049	67.868075950802	570.231035829469	766.063555824890	97.844785323859	556.226091453298	847.912336996989	41.480055279214	544.176020383409	
